<mxfile host="www.draw.io" modified="2020-04-01T09:59:16.159Z" agent="5.0 (X11; Linux x86_64) AppleWebKit/537.36 (KHTML, like Gecko) Chrome/80.0.3987.149 Safari/537.36" etag="nRCKQQxV8el3MKpSUjpU" version="12.9.6" type="github">
  <diagram id="36M4OPUVfyi5DIWEc9pC" name="Page-1">
    <mxGraphModel dx="1408" dy="879" grid="1" gridSize="10" guides="1" tooltips="1" connect="1" arrows="1" fold="1" page="1" pageScale="1" pageWidth="827" pageHeight="1169" math="0" shadow="0">
      <root>
        <mxCell id="0" />
        <mxCell id="1" parent="0" />
        <mxCell id="7cM_rRDwGjMtysiVsURQ-10" value="" style="endArrow=none;dashed=1;html=1;exitX=0;exitY=0;exitDx=0;exitDy=0;" parent="1" edge="1" source="r2GHy2Tr9Az5pCacR4Sv-2">
          <mxGeometry width="50" height="50" relative="1" as="geometry">
            <mxPoint x="200" y="180" as="sourcePoint" />
            <mxPoint x="200" y="50" as="targetPoint" />
          </mxGeometry>
        </mxCell>
        <mxCell id="7cM_rRDwGjMtysiVsURQ-13" value="" style="endArrow=none;dashed=1;html=1;entryX=1;entryY=0;entryDx=0;entryDy=0;" parent="1" edge="1" target="r2GHy2Tr9Az5pCacR4Sv-2">
          <mxGeometry width="50" height="50" relative="1" as="geometry">
            <mxPoint x="770" y="50" as="sourcePoint" />
            <mxPoint x="770" y="140.0000000000001" as="targetPoint" />
          </mxGeometry>
        </mxCell>
        <mxCell id="7cM_rRDwGjMtysiVsURQ-14" value="" style="endArrow=classic;startArrow=classic;html=1;" parent="1" edge="1">
          <mxGeometry width="50" height="50" relative="1" as="geometry">
            <mxPoint x="200" y="60" as="sourcePoint" />
            <mxPoint x="770" y="60" as="targetPoint" />
          </mxGeometry>
        </mxCell>
        <mxCell id="7cM_rRDwGjMtysiVsURQ-17" value="&lt;font color=&quot;#003366&quot;&gt;Variable parameter count&lt;/font&gt;" style="text;html=1;strokeColor=none;fillColor=none;align=center;verticalAlign=middle;whiteSpace=wrap;rounded=0;fontStyle=1" parent="1" vertex="1">
          <mxGeometry x="414" y="40" width="169" height="20" as="geometry" />
        </mxCell>
        <mxCell id="r2GHy2Tr9Az5pCacR4Sv-1" value="Header" style="rounded=0;whiteSpace=wrap;html=1;fillColor=none;strokeColor=#000000;dashed=1;" vertex="1" parent="1">
          <mxGeometry x="40" y="80" width="160" height="60" as="geometry" />
        </mxCell>
        <mxCell id="r2GHy2Tr9Az5pCacR4Sv-2" value="Parameters" style="rounded=0;whiteSpace=wrap;html=1;fillColor=#dae8fc;strokeColor=#000000;" vertex="1" parent="1">
          <mxGeometry x="200" y="80" width="570" height="60" as="geometry" />
        </mxCell>
        <mxCell id="r2GHy2Tr9Az5pCacR4Sv-4" value="Packet&lt;br&gt;Type" style="rounded=0;whiteSpace=wrap;html=1;fillColor=#dae8fc;strokeColor=#000000;" vertex="1" parent="1">
          <mxGeometry x="40" y="160" width="80" height="60" as="geometry" />
        </mxCell>
        <mxCell id="r2GHy2Tr9Az5pCacR4Sv-5" value="Cmd/Evt&lt;br&gt;Code" style="rounded=0;whiteSpace=wrap;html=1;fillColor=#dae8fc;strokeColor=#000000;" vertex="1" parent="1">
          <mxGeometry x="120" y="160" width="80" height="60" as="geometry" />
        </mxCell>
        <mxCell id="r2GHy2Tr9Az5pCacR4Sv-6" value="Packet&lt;br&gt;Type" style="rounded=0;whiteSpace=wrap;html=1;fillColor=#dae8fc;strokeColor=#000000;" vertex="1" parent="1">
          <mxGeometry x="120" y="240" width="80" height="60" as="geometry" />
        </mxCell>
        <mxCell id="r2GHy2Tr9Az5pCacR4Sv-7" value="" style="endArrow=none;html=1;entryX=0;entryY=1;entryDx=0;entryDy=0;dashed=1;" edge="1" parent="1" target="r2GHy2Tr9Az5pCacR4Sv-2">
          <mxGeometry width="50" height="50" relative="1" as="geometry">
            <mxPoint x="200" y="300" as="sourcePoint" />
            <mxPoint x="540" y="200" as="targetPoint" />
          </mxGeometry>
        </mxCell>
        <mxCell id="r2GHy2Tr9Az5pCacR4Sv-8" value="" style="endArrow=none;dashed=1;html=1;entryX=0;entryY=1;entryDx=0;entryDy=0;exitX=0;exitY=0;exitDx=0;exitDy=0;" edge="1" parent="1" source="r2GHy2Tr9Az5pCacR4Sv-4" target="r2GHy2Tr9Az5pCacR4Sv-1">
          <mxGeometry width="50" height="50" relative="1" as="geometry">
            <mxPoint x="490" y="250" as="sourcePoint" />
            <mxPoint x="460" y="180" as="targetPoint" />
          </mxGeometry>
        </mxCell>
        <mxCell id="r2GHy2Tr9Az5pCacR4Sv-9" value="" style="endArrow=none;dashed=1;html=1;entryX=0;entryY=1;entryDx=0;entryDy=0;exitX=0;exitY=0;exitDx=0;exitDy=0;" edge="1" parent="1" source="r2GHy2Tr9Az5pCacR4Sv-6" target="r2GHy2Tr9Az5pCacR4Sv-4">
          <mxGeometry width="50" height="50" relative="1" as="geometry">
            <mxPoint x="490" y="250" as="sourcePoint" />
            <mxPoint x="540" y="200" as="targetPoint" />
          </mxGeometry>
        </mxCell>
        <mxCell id="r2GHy2Tr9Az5pCacR4Sv-10" value="- Command and Event packets" style="text;html=1;strokeColor=none;fillColor=none;align=left;verticalAlign=middle;whiteSpace=wrap;rounded=0;dashed=1;" vertex="1" parent="1">
          <mxGeometry x="210" y="160" width="210" height="60" as="geometry" />
        </mxCell>
        <mxCell id="r2GHy2Tr9Az5pCacR4Sv-11" value="- Response, Acknowledge and Error packets" style="text;html=1;strokeColor=none;fillColor=none;align=left;verticalAlign=middle;whiteSpace=wrap;rounded=0;dashed=1;" vertex="1" parent="1">
          <mxGeometry x="210" y="240" width="260" height="60" as="geometry" />
        </mxCell>
      </root>
    </mxGraphModel>
  </diagram>
</mxfile>
